<svg width="122" height="63" viewBox="0 0 122 63" fill="none" xmlns="http://www.w3.org/2000/svg">
<path d="M9.63977 9.168C8.57433 10.121 7.88567 11.4223 7.69546 12.8361H7.64175V12.9861V46.1007C7.64175 48.3792 8.54687 50.5643 10.158 52.1754C11.7691 53.7866 13.9543 54.6917 16.2327 54.6917H47.3994C49.6779 54.6917 51.863 53.7866 53.4741 52.1754C55.0852 50.5643 55.9904 48.3792 55.9904 46.1007V24.0243C55.9903 22.0904 55.3379 20.213 54.1387 18.6957C52.9641 17.2096 51.332 16.1541 49.4973 15.6916V13.6354C49.4973 12.8483 49.3423 12.0689 49.0411 11.3417C48.7398 10.6145 48.2983 9.95377 47.7418 9.3972C47.1852 8.84062 46.5245 8.39913 45.7973 8.09791C45.0701 7.7967 44.2907 7.64167 43.5036 7.64167H13.6355C12.1612 7.64171 10.7386 8.18512 9.63977 9.168ZM40.7215 34.2284C40.3281 34.6218 40.107 35.1554 40.107 35.7118C40.107 36.2682 40.3281 36.8018 40.7215 37.1953C41.1149 37.5887 41.6485 37.8097 42.2049 37.8097H47.3994C47.9558 37.8097 48.4894 37.5887 48.8828 37.1953C49.2763 36.8018 49.4973 36.2682 49.4973 35.7118C49.4973 35.1554 49.2763 34.6218 48.8828 34.2284C48.4894 33.8349 47.9558 33.6139 47.3994 33.6139H42.2049C41.6485 33.6139 41.1149 33.8349 40.7215 34.2284ZM11.8376 19.6292H47.3994C48.565 19.6292 49.683 20.0922 50.5072 20.9165C51.3315 21.7407 51.7945 22.8586 51.7945 24.0243V46.1007C51.7945 47.2664 51.3315 48.3843 50.5072 49.2085C49.683 50.0328 48.565 50.4958 47.3994 50.4958H16.2327C13.8066 50.4958 11.8376 48.5268 11.8376 46.1007V19.6292ZM45.3015 13.6354V15.4333H13.6355C13.1587 15.4333 12.7014 15.2439 12.3642 14.9067C12.027 14.5696 11.8376 14.1123 11.8376 13.6354C11.8376 13.1586 12.027 12.7013 12.3642 12.3641C12.7014 12.0269 13.1587 11.8375 13.6355 11.8375H43.5036C43.9804 11.8375 44.4377 12.0269 44.7749 12.3641C45.112 12.7013 45.3015 13.1586 45.3015 13.6354Z" fill="#393E46" stroke="#393E46" stroke-width="0.3"/>
<path d="M70.6535 30.14C69.6268 30.14 68.7068 29.9733 67.8935 29.64C67.0802 29.3067 66.4268 28.8133 65.9335 28.16C65.4535 27.5067 65.2002 26.72 65.1735 25.8H68.8135C68.8668 26.32 69.0468 26.72 69.3535 27C69.6602 27.2667 70.0602 27.4 70.5535 27.4C71.0602 27.4 71.4602 27.2867 71.7535 27.06C72.0468 26.82 72.1935 26.4933 72.1935 26.08C72.1935 25.7333 72.0735 25.4467 71.8335 25.22C71.6068 24.9933 71.3202 24.8067 70.9735 24.66C70.6402 24.5133 70.1602 24.3467 69.5335 24.16C68.6268 23.88 67.8868 23.6 67.3135 23.32C66.7402 23.04 66.2468 22.6267 65.8335 22.08C65.4202 21.5333 65.2135 20.82 65.2135 19.94C65.2135 18.6333 65.6868 17.6133 66.6335 16.88C67.5802 16.1333 68.8135 15.76 70.3335 15.76C71.8802 15.76 73.1268 16.1333 74.0735 16.88C75.0202 17.6133 75.5268 18.64 75.5935 19.96H71.8935C71.8668 19.5067 71.7002 19.1533 71.3935 18.9C71.0868 18.6333 70.6935 18.5 70.2135 18.5C69.8002 18.5 69.4668 18.6133 69.2135 18.84C68.9602 19.0533 68.8335 19.3667 68.8335 19.78C68.8335 20.2333 69.0468 20.5867 69.4735 20.84C69.9002 21.0933 70.5668 21.3667 71.4735 21.66C72.3802 21.9667 73.1135 22.26 73.6735 22.54C74.2468 22.82 74.7402 23.2267 75.1535 23.76C75.5668 24.2933 75.7735 24.98 75.7735 25.82C75.7735 26.62 75.5668 27.3467 75.1535 28C74.7535 28.6533 74.1668 29.1733 73.3935 29.56C72.6202 29.9467 71.7068 30.14 70.6535 30.14ZM77.1982 24.4C77.1982 23.2533 77.4115 22.2467 77.8382 21.38C78.2782 20.5133 78.8715 19.8467 79.6182 19.38C80.3649 18.9133 81.1982 18.68 82.1182 18.68C82.9049 18.68 83.5915 18.84 84.1782 19.16C84.7782 19.48 85.2382 19.9 85.5582 20.42V18.84H88.9782V30H85.5582V28.42C85.2249 28.94 84.7582 29.36 84.1582 29.68C83.5715 30 82.8849 30.16 82.0982 30.16C81.1915 30.16 80.3649 29.9267 79.6182 29.46C78.8715 28.98 78.2782 28.3067 77.8382 27.44C77.4115 26.56 77.1982 25.5467 77.1982 24.4ZM85.5582 24.42C85.5582 23.5667 85.3182 22.8933 84.8382 22.4C84.3715 21.9067 83.7982 21.66 83.1182 21.66C82.4382 21.66 81.8582 21.9067 81.3782 22.4C80.9115 22.88 80.6782 23.5467 80.6782 24.4C80.6782 25.2533 80.9115 25.9333 81.3782 26.44C81.8582 26.9333 82.4382 27.18 83.1182 27.18C83.7982 27.18 84.3715 26.9333 84.8382 26.44C85.3182 25.9467 85.5582 25.2733 85.5582 24.42ZM98.2724 30L94.8724 25.32V30H91.4524V15.2H94.8724V23.38L98.2524 18.84H102.472L97.8324 24.44L102.512 30H98.2724ZM114.836 18.84V30H111.416V28.48C111.069 28.9733 110.596 29.3733 109.996 29.68C109.409 29.9733 108.756 30.12 108.036 30.12C107.182 30.12 106.429 29.9333 105.776 29.56C105.122 29.1733 104.616 28.62 104.256 27.9C103.896 27.18 103.716 26.3333 103.716 25.36V18.84H107.116V24.9C107.116 25.6467 107.309 26.2267 107.696 26.64C108.082 27.0533 108.602 27.26 109.256 27.26C109.922 27.26 110.449 27.0533 110.836 26.64C111.222 26.2267 111.416 25.6467 111.416 24.9V18.84H114.836Z" fill="black"/>
<path d="M72.3935 47L68.9935 42.32V47H65.5735V32.2H68.9935V40.38L72.3735 35.84H76.5935L71.9535 41.44L76.6335 47H72.3935ZM88.9568 35.84V47H85.5368V45.48C85.1901 45.9733 84.7168 46.3733 84.1168 46.68C83.5301 46.9733 82.8768 47.12 82.1568 47.12C81.3034 47.12 80.5501 46.9333 79.8968 46.56C79.2434 46.1733 78.7368 45.62 78.3768 44.9C78.0168 44.18 77.8368 43.3333 77.8368 42.36V35.84H81.2368V41.9C81.2368 42.6467 81.4301 43.2267 81.8168 43.64C82.2034 44.0533 82.7234 44.26 83.3768 44.26C84.0434 44.26 84.5701 44.0533 84.9568 43.64C85.3434 43.2267 85.5368 42.6467 85.5368 41.9V35.84H88.9568Z" fill="#6D9886"/>
</svg>
