<svg width="102" height="29" viewBox="0 0 102 29" fill="none" xmlns="http://www.w3.org/2000/svg">
<path d="M4.4313 4.20554C3.93886 4.646 3.61459 5.24193 3.51093 5.89167H3.475V6.04167V21.4479C3.475 22.5292 3.90455 23.5662 4.66915 24.3309C5.43375 25.0955 6.47077 25.525 7.55208 25.525H22.0521C23.1334 25.525 24.1704 25.0955 24.935 24.3309C25.6996 23.5662 26.1292 22.5292 26.1292 21.4479V11.1771C26.1291 10.2593 25.8195 9.36832 25.2504 8.64827C24.7059 7.95938 23.9544 7.46547 23.1083 7.23835V6.34375C23.1083 5.96702 23.0341 5.59398 22.89 5.24593C22.7458 4.89787 22.5345 4.58163 22.2681 4.31524C22.0017 4.04885 21.6855 3.83754 21.3374 3.69337C20.9894 3.5492 20.6163 3.475 20.2396 3.475H6.34375H6.34375C5.63811 3.47502 4.95724 3.73511 4.4313 4.20554ZM18.8885 15.8677C18.6905 16.0658 18.5792 16.3344 18.5792 16.6146C18.5792 16.8947 18.6905 17.1634 18.8885 17.3615C19.0866 17.5596 19.3553 17.6708 19.6354 17.6708H22.0521C22.3322 17.6708 22.6009 17.5596 22.799 17.3615C22.9971 17.1634 23.1083 16.8947 23.1083 16.6146C23.1083 16.3344 22.9971 16.0658 22.799 15.8677C22.6009 15.6696 22.3322 15.5583 22.0521 15.5583H19.6354C19.3553 15.5583 19.0866 15.6696 18.8885 15.8677ZM5.5875 9.2125H22.0521C22.5731 9.2125 23.0728 9.41948 23.4413 9.78791C23.8097 10.1563 24.0167 10.656 24.0167 11.1771V21.4479C24.0167 21.969 23.8097 22.4687 23.4413 22.8371C23.0728 23.2055 22.5731 23.4125 22.0521 23.4125H7.55208C6.46768 23.4125 5.5875 22.5323 5.5875 21.4479V9.2125ZM20.9958 6.34375V7.1H6.34375C6.14318 7.1 5.95082 7.02032 5.809 6.8785C5.66718 6.73668 5.5875 6.54432 5.5875 6.34375C5.5875 6.14318 5.66718 5.95082 5.809 5.809C5.95082 5.66718 6.14318 5.5875 6.34375 5.5875H20.2396C20.4402 5.5875 20.6325 5.66718 20.7743 5.809C20.9162 5.95082 20.9958 6.14318 20.9958 6.34375Z" fill="#393E46" stroke="#393E46" stroke-width="0.3"/>
<path d="M37.372 21.119C36.4993 21.119 35.7173 20.9773 35.026 20.694C34.3347 20.4107 33.7793 19.9913 33.36 19.436C32.952 18.8807 32.7367 18.212 32.714 17.43H35.808C35.8533 17.872 36.0063 18.212 36.267 18.45C36.5277 18.6767 36.8677 18.79 37.287 18.79C37.7177 18.79 38.0577 18.6937 38.307 18.501C38.5563 18.297 38.681 18.0193 38.681 17.668C38.681 17.3733 38.579 17.1297 38.375 16.937C38.1823 16.7443 37.9387 16.5857 37.644 16.461C37.3607 16.3363 36.9527 16.1947 36.42 16.036C35.6493 15.798 35.0203 15.56 34.533 15.322C34.0457 15.084 33.6263 14.7327 33.275 14.268C32.9237 13.8033 32.748 13.197 32.748 12.449C32.748 11.3383 33.1503 10.4713 33.955 9.848C34.7597 9.21333 35.808 8.896 37.1 8.896C38.4147 8.896 39.4743 9.21333 40.279 9.848C41.0837 10.4713 41.5143 11.344 41.571 12.466H38.426C38.4033 12.0807 38.2617 11.7803 38.001 11.565C37.7403 11.3383 37.406 11.225 36.998 11.225C36.6467 11.225 36.3633 11.3213 36.148 11.514C35.9327 11.6953 35.825 11.9617 35.825 12.313C35.825 12.6983 36.0063 12.9987 36.369 13.214C36.7317 13.4293 37.2983 13.6617 38.069 13.911C38.8397 14.1717 39.463 14.421 39.939 14.659C40.4263 14.897 40.8457 15.2427 41.197 15.696C41.5483 16.1493 41.724 16.733 41.724 17.447C41.724 18.127 41.5483 18.7447 41.197 19.3C40.857 19.8553 40.3583 20.2973 39.701 20.626C39.0437 20.9547 38.2673 21.119 37.372 21.119ZM42.935 16.24C42.935 15.2653 43.1163 14.4097 43.479 13.673C43.853 12.9363 44.3573 12.3697 44.992 11.973C45.6267 11.5763 46.335 11.378 47.117 11.378C47.7857 11.378 48.3693 11.514 48.868 11.786C49.378 12.058 49.769 12.415 50.041 12.857V11.514H52.948V21H50.041V19.657C49.7577 20.099 49.361 20.456 48.851 20.728C48.3523 21 47.7687 21.136 47.1 21.136C46.3293 21.136 45.6267 20.9377 44.992 20.541C44.3573 20.133 43.853 19.5607 43.479 18.824C43.1163 18.076 42.935 17.2147 42.935 16.24ZM50.041 16.257C50.041 15.5317 49.837 14.9593 49.429 14.54C49.0323 14.1207 48.545 13.911 47.967 13.911C47.389 13.911 46.896 14.1207 46.488 14.54C46.0913 14.948 45.893 15.5147 45.893 16.24C45.893 16.9653 46.0913 17.5433 46.488 17.974C46.896 18.3933 47.389 18.603 47.967 18.603C48.545 18.603 49.0323 18.3933 49.429 17.974C49.837 17.5547 50.041 16.9823 50.041 16.257ZM60.8481 21L57.9581 17.022V21H55.0511V8.42H57.9581V15.373L60.8311 11.514H64.4181L60.4741 16.274L64.4521 21H60.8481ZM74.9269 11.514V21H72.0199V19.708C71.7252 20.1273 71.3229 20.4673 70.8129 20.728C70.3142 20.9773 69.7589 21.102 69.1469 21.102C68.4215 21.102 67.7812 20.9433 67.2259 20.626C66.6705 20.2973 66.2399 19.827 65.9339 19.215C65.6279 18.603 65.4749 17.8833 65.4749 17.056V11.514H68.3649V16.665C68.3649 17.2997 68.5292 17.7927 68.8579 18.144C69.1865 18.4953 69.6285 18.671 70.1839 18.671C70.7505 18.671 71.1982 18.4953 71.5269 18.144C71.8555 17.7927 72.0199 17.2997 72.0199 16.665V11.514H74.9269Z" fill="black"/>
<path d="M82.8119 21L79.9219 17.022V21H77.0149V8.42H79.9219V15.373L82.7949 11.514H86.3819L82.4379 16.274L86.4159 21H82.8119ZM96.8907 11.514V21H93.9837V19.708C93.6891 20.1273 93.2867 20.4673 92.7767 20.728C92.2781 20.9773 91.7227 21.102 91.1107 21.102C90.3854 21.102 89.7451 20.9433 89.1897 20.626C88.6344 20.2973 88.2037 19.827 87.8977 19.215C87.5917 18.603 87.4387 17.8833 87.4387 17.056V11.514H90.3287V16.665C90.3287 17.2997 90.4931 17.7927 90.8217 18.144C91.1504 18.4953 91.5924 18.671 92.1477 18.671C92.7144 18.671 93.1621 18.4953 93.4907 18.144C93.8194 17.7927 93.9837 17.2997 93.9837 16.665V11.514H96.8907Z" fill="#6D9886"/>
</svg>
