<svg width="26" height="25" viewBox="0 0 26 25" fill="none" xmlns="http://www.w3.org/2000/svg">
<path d="M21.7317 11.25C21.8357 11.25 21.9256 11.3198 21.9429 11.4177C22.0447 11.9656 22.1 12.5552 22.1 13.125C22.1033 15.4322 21.2184 17.6589 19.6159 19.376C19.5787 19.4157 19.5269 19.4398 19.4714 19.4433C19.416 19.4468 19.3614 19.4294 19.3191 19.3948L16.6703 17.2385C16.6475 17.2197 16.6289 17.1965 16.6156 17.1706C16.6023 17.1446 16.5946 17.1163 16.593 17.0874C16.5914 17.0585 16.5959 17.0296 16.6062 17.0024C16.6165 16.9752 16.6324 16.9503 16.653 16.9292C17.1864 16.3709 17.5969 15.7147 17.8598 15H12.5666C12.5092 15 12.4541 14.9781 12.4134 14.939C12.3728 14.8999 12.35 14.8469 12.35 14.7917V11.4583C12.35 11.3438 12.4475 11.25 12.5666 11.25H21.7317ZM15.0291 18.125C15.0679 18.1055 15.1119 18.0974 15.1554 18.1019C15.199 18.1063 15.2402 18.1231 15.2739 18.15L18.0559 20.4135C18.0807 20.4334 18.1005 20.4585 18.1137 20.4868C18.1269 20.5151 18.1333 20.546 18.1322 20.577C18.1312 20.6081 18.1228 20.6385 18.1077 20.6659C18.0926 20.6934 18.0712 20.7171 18.0451 20.7354C16.3873 21.8856 14.3942 22.5032 12.35 22.5C10.725 22.5008 9.12559 22.1107 7.69742 21.3654C6.26925 20.62 5.05767 19.5429 4.17298 18.2323C4.144 18.189 4.13304 18.1367 4.14227 18.086C4.1515 18.0352 4.18026 17.9896 4.22282 17.9583L6.9799 15.9146C7.00525 15.8964 7.03432 15.8835 7.06521 15.8769C7.09609 15.8702 7.12809 15.87 7.15909 15.8761C7.1901 15.8822 7.21941 15.8945 7.2451 15.9123C7.27079 15.93 7.29228 15.9528 7.30815 15.9792C8.06612 17.2179 9.28859 18.1304 10.7245 18.5295C12.1604 18.9286 13.7007 18.7838 15.0291 18.125ZM6.58665 14.0896C6.59358 14.1278 6.58958 14.167 6.57507 14.2032C6.56057 14.2393 6.53611 14.271 6.50432 14.2948L3.5414 16.4896C3.51525 16.5093 3.48465 16.5229 3.45206 16.5292C3.41947 16.5354 3.3858 16.5343 3.35376 16.5258C3.32173 16.5172 3.29221 16.5016 3.2676 16.4801C3.24299 16.4587 3.22397 16.4319 3.21207 16.4021C2.80587 15.3537 2.59856 14.2438 2.59998 13.125C2.59998 11.925 2.83507 10.7771 3.26298 9.72188C3.275 9.69279 3.29381 9.66675 3.31796 9.64577C3.34211 9.62479 3.37095 9.60943 3.40225 9.60087C3.43356 9.59231 3.46649 9.59079 3.49851 9.59642C3.53053 9.60205 3.56077 9.61468 3.5869 9.63333L6.54657 11.7208C6.61698 11.7698 6.64948 11.8563 6.63107 11.9375C6.47248 12.6454 6.45811 13.3761 6.58665 14.0896ZM7.09257 10.1677C7.19657 10.2406 7.34282 10.2115 7.41215 10.1073C7.94016 9.30793 8.66964 8.6498 9.53289 8.19399C10.3961 7.73818 11.3651 7.49946 12.35 7.5C13.7118 7.49956 15.0306 7.9585 16.0766 8.79688C16.1189 8.83127 16.1729 8.84927 16.2282 8.84735C16.2836 8.84542 16.3361 8.82371 16.3756 8.78646L18.8305 6.425C18.851 6.40534 18.8672 6.38184 18.878 6.35596C18.8888 6.33008 18.8941 6.30236 18.8933 6.27447C18.8926 6.24659 18.886 6.21914 18.8739 6.1938C18.8618 6.16846 18.8444 6.14576 18.8229 6.12708C17.0432 4.59542 14.7384 3.749 12.35 3.75C10.7463 3.74915 9.16718 4.12901 7.75283 4.85588C6.33847 5.58274 5.13262 6.63411 4.24232 7.91667C4.21239 7.96073 4.20121 8.01416 4.21109 8.06593C4.22097 8.11769 4.25115 8.16382 4.2954 8.19479L7.09257 10.1677Z" fill="#E6E6E6"/>
<path d="M22.2979 10.6865H21.5222V10.6481H12.8555V14.3518H18.2977C17.5037 16.5078 15.3703 18.0555 12.8555 18.0555C9.66474 18.0555 7.07774 15.568 7.07774 12.5C7.07774 9.43191 9.66474 6.94441 12.8555 6.94441C14.3284 6.94441 15.6683 7.47867 16.6886 8.35136L19.4123 5.73237C17.6925 4.19117 15.392 3.24071 12.8555 3.24071C7.53756 3.24071 3.22589 7.38654 3.22589 12.5C3.22589 17.6134 7.53756 21.7592 12.8555 21.7592C18.1735 21.7592 22.4852 17.6134 22.4852 12.5C22.4852 11.8791 22.4187 11.2731 22.2979 10.6865Z" fill="#FFC107"/>
<path d="M4.33618 8.19025L7.5 10.4213C8.35607 8.3833 10.4293 6.94441 12.8555 6.94441C14.3284 6.94441 15.6683 7.47867 16.6886 8.35136L19.4123 5.73237C17.6925 4.19117 15.392 3.24071 12.8555 3.24071C9.15677 3.24071 5.94914 5.24858 4.33618 8.19025Z" fill="#FF3D00"/>
<path d="M12.8556 21.7592C15.3429 21.7592 17.603 20.8439 19.3117 19.3555L16.3314 16.9305C15.3321 17.6613 14.111 18.0565 12.8556 18.0555C10.3509 18.0555 8.22418 16.5199 7.423 14.3768L4.28278 16.7032C5.87648 19.7018 9.113 21.7592 12.8556 21.7592Z" fill="#4CAF50"/>
<path d="M22.2979 10.6865H21.5222V10.6481H12.8555V14.3518H18.2977C17.9179 15.3779 17.2338 16.2746 16.3299 16.931L16.3313 16.9301L19.3117 19.3551C19.1008 19.5393 22.4852 17.1296 22.4852 12.5C22.4852 11.8791 22.4187 11.2731 22.2979 10.6865Z" fill="#1976D2"/>
</svg>
